# xmcd
#
# Track frame offsets:
#	150
#	13400
#	25814
#	42281
#	57996
#	74602
#	90435
#	104155
#	117453
#	133758
#	152311
#	166058
#	179829
#	192047
#	207514
#	223403
#	248842
#	264222
#	276990
#	288804
#	301691
#	324852
#	342211
#
# Disc length: 4732 seconds
#
# Revision: 1
# Processed by: cddbd v1.5.2PL0 Copyright (c) Steve Scherf et al.
# Submitted via: audiograbber 1.83.01
#
DISCID=56127a17
DTITLE=CALDAS COUNTRY FEST - 2008
DYEAR=2008
DGENRE=
TTITLE0=ABERTURA
TTITLE1=JORGE and MATEUS - Vou Fazer Pirraca
TTITLE2=MARIA CECILIA and RODOLFO - Voce de Volta
TTITLE3=EDSON and HUDSON - Eu Quero Mais
TTITLE4=FERNANDO E SOROCABA - Bala de Prata
TTITLE5=GUILHERME and SANTIAGO - A Culpa e Sua
TTITLE6=ZE HENRIQUE and GABRIEL - Morro de Saudade
TTITLE7=RIO NEGRO E SOLIMOES - Arrastao
TTITLE8=ALEXANDRE PEIXE E JORGE and MATEUS - Querendo te Amar
TTITLE9=ASA DE AGUIA - QuebraE
TTITLE10=JORGE and MATEUS - De Tanto Te Querer
TTITLE11=MARIA CECILIA and RODOLFO - A Fila Andou
TTITLE12=EDSON and HUDSON - Fui Buscar
TTITLE13=FERNANDO and SOROCABA - Juliana
TTITLE14=GUILHERME and SANTIAGO - Quando Voce Vem Me Abracar
TTITLE15=JORGE and MATEUS - Tem Nada a Ver
TTITLE16=ZE HENRIQUE and GABRIEL - Voce e a Dona do Meu Coracao
TTITLE17=RIO NEGRO and SOLIMOES - Vida Louca
TTITLE18=MARIA CECILIA and RODOLFO - Mato e Morro Por Voce
TTITLE19=JORGE and MATEUS - Te Amo Tanto que Nem Sei
TTITLE20=ASIA DE AGUIA - Me Abraca e me Beija
TTITLE21=ALEXANDRE PEIXE - Nao da Pra te Esquecer
TTITLE22=JORGE and MATEUS ELETRICO - De Tanto te Querer
EXTD=
EXTT0=
EXTT1=
EXTT2=
EXTT3=
EXTT4=
EXTT5=
EXTT6=
EXTT7=
EXTT8=
EXTT9=
EXTT10=
EXTT11=
EXTT12=
EXTT13=
EXTT14=
EXTT15=
EXTT16=
EXTT17=
EXTT18=
EXTT19=
EXTT20=
EXTT21=
EXTT22=
PLAYORDER=
